
<svg  xmlns="http://www.w3.org/2000/svg" viewBox="0 0 1024 1024">
<path d="M471.8 839.1c-4.7-1-8.4-3.4-10.2-6.9-1-1.9-1.9-10.9-3-28.5-0.9-14.2-2-26.6-2.6-27.6-0.6-1.2-3.5-2.5-8.2-3.6-9.2-2.2-25.1-7.9-39.1-13.9-8.4-3.6-11.2-4.4-12.7-3.6-1 0.5-9.3 9.4-18.5 19.7-9.1 10.4-18 19.8-19.7 21.1-3.7 2.6-8.4 2.8-11.8 0.5-2.4-1.6-51-41-61.3-49.7-5.8-4.9-7.7-8.1-7.7-13.4 0-3.4 1.8-6.7 13.3-23.7 7.2-10.8 14.1-21.2 15.2-23.1l2-3.4-2-3.4c-1.1-1.9-5-7.9-8.6-13.3-3.7-5.4-9-14.5-11.9-20.3-6-12.1-8.3-15-11.9-15-1.5 0-13.2 2-26.1 4.5-12.9 2.5-25 4.5-26.8 4.5-2.3 0-4.3-1-6.7-3.2l-3.6-3.3-8.4-42.4c-4.7-23.4-8.5-43.8-8.5-45.5 0-4.3 3.4-9.5 7.3-11 1.7-0.7 12.7-3.5 24.2-6 11.6-2.6 22.2-5.2 23.7-5.8 3.4-1.3 4.4-4.5 5.3-16.7 0.3-5.2 1.9-16.5 3.5-25.2 3.5-18.3 3.6-21.1 1.3-23.1-1.6-1.4-17.9-11.1-38-22.7-7.8-4.5-10.3-7.7-10.3-13.3 0-4.5 36.3-76.8 41.2-82 5.7-6.2 7.7-5.7 34.8 7.7 12.8 6.3 24.1 11.5 25.3 11.5 1.3 0 7.4-5.5 17.1-15.3 8.3-8.5 18.2-18.1 22-21.4 6.2-5.6 6.8-6.4 6.2-9-0.4-1.5-4.6-12.7-9.4-24.8-5.3-13.4-8.6-23.4-8.6-25.7-0.1-6.3 2.6-8.5 19-16.1 48.1-22.2 67.6-30.7 70.4-30.7 1.7 0 4.4 0.7 6.1 1.5 2.9 1.6 4.7 4.9 21.2 39.5 1.2 2.5 3.2 6.2 4.4 8.3 2.1 3.3 2.7 3.7 6.6 3.7 2.3 0 6.9-0.5 10.2-1 19.7-3.3 53.3-3.1 74.5 0.4 7.4 1.2 8.8 1.2 10.8 0 1.4-0.9 6.4-10 13.5-24.7 12.2-25 14.2-27.7 20.5-27.7 2.5 0 15.8 5.6 43.6 18.2 22.1 10 41.3 19 42.8 20 3.1 2.1 5.3 7.7 4.3 11-0.4 1.3-4.7 12.5-9.6 24.9-4.9 12.5-8.9 23.7-8.9 24.9 0 1.5 1.7 3.7 4.8 6.3 2.6 2.3 12.3 11.7 21.5 20.9 9.3 9.2 17.4 16.8 18.1 16.8 0.7 0 12-5.2 25.2-11.5 13.1-6.3 25.2-11.5 26.7-11.5 3.9 0 8.9 2.5 10.7 5.2 4 6.3 38.2 76.6 38.7 79.4 0.8 4.7-1.2 8.8-5.5 11.6-2.1 1.3-12.4 7.5-23.1 13.8-11.2 6.6-19.7 12.2-20.3 13.5-0.7 1.5-0.1 6.8 2.1 18.5 1.7 9.1 3.5 22.1 4.2 29 0.8 9.4 1.5 12.9 2.8 14.3 1.2 1.2 7.7 3.1 20.1 5.7 31.1 6.8 35.9 8.8 37.5 16 0.4 1.7-1 10.8-3.4 22.6-7.9 39-13.9 66.1-15 68.3-1.6 3-6.9 6.1-10.5 6.1-1.5 0-13.6-2.1-26.7-4.6-13.8-2.7-24.9-4.4-26.4-4-2 0.5-3.6 2.8-7.6 10.8-5.9 11.8-13.1 23.5-20 32.9-2.7 3.7-4.9 7.3-4.9 8.1 0 0.8 4.6 7.9 10.2 15.9 21.2 29.9 23.6 35.1 18.7 41.3-1.1 1.4-12.7 11.2-25.7 21.8-13 10.6-27.9 22.8-33.1 27-10 8.3-14 9.9-19 7.8-1.6-0.6-10.7-9.9-20.6-21.1-9.8-11-18.6-20.4-19.5-20.9-2.2-1.2-4.7-0.4-18 5.3-11.9 5.1-28 10.8-35.7 12.6-2.9 0.7-5.6 1.8-6.1 2.4-0.6 0.7-1.7 13.1-2.6 27.5-1 14.5-2.1 27.4-2.6 28.5-1.4 3.9-5.8 7-10.7 7.8-5.9 1-75.4 0.9-80.5 0zM530.5 693c76.2-8.5 134.2-61.4 150.2-136.9 2.4-11.3 2.7-14.7 2.7-33.1 0-17.4-0.4-22.1-2.2-30.8-7.8-35.8-22.9-64-47.6-88.7-33.2-33.1-75.5-50.8-121.6-50.7-59.4 0.1-110.5 27.4-143.3 76.5-33.4 49.9-37.4 117.4-10 170.9 17.4 34.2 41.6 58.4 75.2 75.2 29.4 14.8 64.4 21.2 96.6 17.6z"/>
</svg>